# xmcd
#
# Track frame offsets: 
#        150
#        16836
#        31997
#        44720
#        55545
#        67777
#        84000
#        96984
#        107516
#        117933
#
# Disc length: 1706 seconds
#
# Revision: 0
# Processed by: cddbd v1.5.2PL0 Copyright (c) Steve Scherf et al.
# Submitted via: ExactAudioCopy v0.99pb5
#
DISCID=6e06a80a
DTITLE=Home By Midnight - Uncle Eddie's Blues
DYEAR=2010
DGENRE=Blues
TTITLE0=Uncle Eddie's Blues
TTITLE1=I Heard it Through the Moon
TTITLE2=Mad, Bad and Dangerous to Know
TTITLE3=Pay My Bail
TTITLE4=Down Tallahassee Way
TTITLE5=West Coast Girl
TTITLE6=Another Promised Land
TTITLE7=I'm Not that Man
TTITLE8=Back to Hell
TTITLE9=Going Down Fast
EXTD=
EXTT0=All Songs copyright 2010 HBM
EXTT1=All Songs copyright 2010 HBM\n
EXTT2=All Songs copyright 2010 HBM
EXTT3=All Songs copyright 2010 HBM\n
EXTT4=All Songs copyright 2010 HBM\n
EXTT5=All Songs copyright 2010 HBM\n
EXTT6=All Songs copyright 2010 HBM\n
EXTT7=All Songs copyright 2010 HBM\n
EXTT8=All Songs copyright 2010 HBM\n
EXTT9=All Songs copyright 2010 HBM\n
PLAYORDER=
